<svg xmlns="http://www.w3.org/2000/svg" viewBox="0 0 64 64">
  <rect x="2" y="12" width="60" height="40" rx="2" fill="#07272b"/>
  <rect x="2" y="12" width="60" height="40" rx="2" fill="none" stroke="#e08a55" stroke-width="3"/>
  <g fill="none" stroke="#e9eae5" stroke-width="1.4" stroke-opacity="0.6">
    <rect x="7" y="17" width="50" height="30"/><path d="M32 17v30"/>
    <rect x="7" y="24" width="6" height="16"/><rect x="51" y="24" width="6" height="16"/>
  </g>
  <circle cx="32" cy="32" r="11.5" fill="#b06a37"/>
  <g fill="none" stroke="#5c3218" stroke-width="1.50" stroke-linecap="round" stroke-opacity="0.85">
    <path d="M24.9 23.0 q 3.4 10.9 0 17.9"/>
    <path d="M39.1 23.0 q -3.4 10.9 0 17.9"/>
    <path d="M20.8 29.1 q 11.2 -2.5 22.3 0"/>
    <path d="M20.8 37.2 q 11.2 2.5 22.3 0"/>
  </g>
  <g stroke="#3a2110" stroke-width="1.50" stroke-linecap="round">
    <path d="M32 25.7 v 10.9"/>
    <path d="M28.6 27.6 h 6.9"/>
    <path d="M28.6 30.9 h 6.9"/>
    <path d="M28.6 34.1 h 6.9"/>
  </g>
</svg>